<svg width="309" height="145" viewBox="0 0 309 145" fill="none" xmlns="http://www.w3.org/2000/svg">
<path d="M72.0503 24C98.5877 24 120.101 45.513 120.101 72.0503C120.101 98.5877 98.5877 120.101 72.0503 120.101C45.513 120.096 24 98.5826 24 72.0503C24 45.513 45.513 24 72.0503 24Z" fill="black"/>
<path d="M58.3697 96.0753H58.3494C52.6146 96.0753 47.9506 91.4113 47.9506 85.6765V58.4287C47.9506 52.6939 52.6146 48.03 58.3494 48.03H85.5972C91.332 48.03 95.9959 52.6939 95.9959 58.4287C95.9959 61.2047 94.9149 63.8184 92.9509 65.7773L65.7285 93.0252C63.7644 94.9943 61.1508 96.0753 58.3697 96.0753ZM58.3443 51.7246C54.6497 51.7246 51.6402 54.729 51.6402 58.4287V85.6765C51.6402 89.3711 54.6446 92.3806 58.3443 92.3806H58.3646C60.1561 92.3806 61.841 91.6803 63.1047 90.4166L90.3271 63.1688C91.5908 61.9051 92.2911 60.2202 92.2911 58.4287C92.2911 54.7341 89.2867 51.7246 85.587 51.7246H58.3392H58.3443Z" fill="white"/>
<path d="M85.587 96.0702H58.3494C52.6146 96.0702 47.9456 91.4113 47.9456 85.6816V58.4287C47.9456 52.6939 52.6146 48.0249 58.3494 48.0249C61.0848 48.0249 63.7644 49.1363 65.7031 51.075L83.0241 68.3859L80.4105 70.9995L63.0844 53.6886C61.8308 52.4351 60.1053 51.7195 58.3443 51.7195C54.6446 51.7195 51.6351 54.729 51.6351 58.4287V85.6816C51.6351 89.3711 54.6446 92.3756 58.3443 92.3756H85.582C89.2816 92.3756 92.2911 89.3711 92.2911 85.6816V85.6562C92.2911 83.8597 91.5908 82.1798 90.3271 80.9212L85.1201 75.7244L87.7287 73.1057L92.9357 78.2974C94.9048 80.2462 95.9858 82.8599 95.9858 85.6511V85.6765C95.9858 91.4062 91.3167 96.0651 85.582 96.0651L85.587 96.0702Z" fill="white"/>
<path d="M151.207 56.0893C154.587 56.0893 157.196 56.8201 159.038 58.2817C160.88 59.7433 161.799 61.7682 161.799 64.3514C161.799 66.2393 161.311 67.7973 160.337 69.0306C159.363 70.2638 157.947 71.1215 156.089 71.6087C160.779 72.4917 163.118 75.0343 163.118 79.2314C163.118 81.9719 162.123 84.1237 160.129 85.6919C158.135 87.2601 155.267 88.0416 151.522 88.0416H139.88V56.0842H151.202L151.207 56.0893ZM143.858 69.9644H151.39C153.43 69.9644 155.013 69.5076 156.14 68.5941C157.267 67.6806 157.83 66.4169 157.83 64.8031C157.83 63.1892 157.272 61.9357 156.165 61.0374C155.054 60.1391 153.465 59.6925 151.395 59.6925H143.864V69.9644H143.858ZM151.527 84.4384C153.963 84.4384 155.825 83.9664 157.119 83.0224C158.414 82.0785 159.058 80.7691 159.058 79.0944C159.058 77.2978 158.403 75.9225 157.094 74.9633C155.785 74.0041 153.927 73.527 151.522 73.527H143.853V84.4384H151.527Z" fill="black"/>
<path d="M171.385 56.4547C171.842 56.9114 172.071 57.49 172.071 58.1903C172.071 58.8907 171.842 59.4692 171.385 59.926C170.929 60.3827 170.35 60.6111 169.65 60.6111C168.949 60.6111 168.371 60.3827 167.914 59.926C167.457 59.4692 167.229 58.8907 167.229 58.1903C167.229 57.49 167.457 56.9114 167.914 56.4547C168.371 55.9979 168.949 55.7695 169.65 55.7695C170.35 55.7695 170.929 55.9979 171.385 56.4547ZM167.782 64.7625H171.527V88.0467H167.782V64.7625Z" fill="black"/>
<path d="M178.191 68.183H173.989V64.7574H178.191V58.2309H181.936V64.7574H187.828V68.183H181.936V81.9262C181.936 82.9006 182.124 83.5908 182.505 84.0019C182.885 84.413 183.545 84.616 184.489 84.616H188.554V88.0416H184.261C182.068 88.0416 180.51 87.5544 179.582 86.58C178.653 85.6056 178.191 84.0679 178.191 81.9668V68.178V68.183Z" fill="black"/>
<path d="M191.68 88.0466L203.871 56.0892H208.575L220.72 88.0466H216.472L213.092 79.4191H199.166L195.786 88.0466H191.675H191.68ZM200.359 75.8107H211.91L206.114 60.4233L200.364 75.8107H200.359Z" fill="black"/>
<path d="M235.6 64.7624V68.4164H233.727C231.504 68.4164 229.916 69.1625 228.957 70.6545C227.997 72.1466 227.52 73.9888 227.52 76.1762V88.0466H223.775V64.7624H227.018L227.52 68.2794C228.19 67.2137 229.058 66.3611 230.124 65.7216C231.19 65.0821 232.666 64.7624 234.554 64.7624H235.605H235.6Z" fill="black"/>
<path d="M256.377 86.1029C254.58 87.5797 252.297 88.3156 249.531 88.3156C247.277 88.3156 245.298 87.8132 243.598 86.8083C241.893 85.8035 240.568 84.3977 239.624 82.5859C238.68 80.7741 238.208 78.6984 238.208 76.3538C238.208 74.0091 238.685 71.9436 239.645 70.147C240.604 68.3505 241.949 66.9599 243.684 65.9703C245.42 64.9806 247.414 64.4884 249.663 64.4884C252.403 64.4884 254.662 65.2192 256.443 66.6808C258.224 68.1424 259.341 70.1521 259.797 72.7099H256.006C255.641 71.2179 254.88 70.0303 253.723 69.1472C252.566 68.2642 251.165 67.8227 249.521 67.8227C247.298 67.8227 245.496 68.6144 244.111 70.1978C242.725 71.7812 242.035 73.8366 242.035 76.3589C242.035 78.8811 242.725 80.9924 244.111 82.591C245.496 84.1896 247.298 84.9864 249.521 84.9864C251.226 84.9864 252.657 84.5449 253.814 83.6618C254.971 82.7788 255.717 81.5608 256.052 80.0078H259.797C259.31 82.5961 258.168 84.6261 256.372 86.1029H256.377Z" fill="black"/>
<path d="M282.397 67.0462C284.132 68.7514 285 71.431 285 75.0799V88.0466H281.255V75.3083C281.255 72.9028 280.707 71.0707 279.61 69.807C278.514 68.5433 276.946 67.914 274.906 67.914C272.744 67.914 271.034 68.6753 269.77 70.1978C268.506 71.7203 267.877 73.7909 267.877 76.4045V88.0466H264.132V56.0892H267.877V68.5991C268.638 67.3811 269.648 66.3915 270.912 65.6302C272.175 64.869 273.718 64.4884 275.545 64.4884C278.377 64.4884 280.661 65.341 282.391 67.0462H282.397Z" fill="black"/>
</svg>
